<?xml version="1.0" encoding="UTF-8" standalone="no"?>
<svg width="23px" height="21px" viewBox="0 0 23 21" version="1.1" xmlns="http://www.w3.org/2000/svg" xmlns:xlink="http://www.w3.org/1999/xlink">
    <!-- Generator: Sketch 40.1 (33804) - http://www.bohemiancoding.com/sketch -->
    <title>默认图标变亮</title>
    <desc>Created with Sketch.</desc>
    <defs></defs>
    <g id="消息" stroke="none" stroke-width="1" fill="none" fill-rule="evenodd">
        <g id="消息首页" transform="translate(-100.000000, -626.000000)" fill="#FF9901">
            <g id="底部菜单" transform="translate(0.000000, 618.000000)">
                <g id="默认图标变亮" transform="translate(100.000000, 8.000000)">
                    <ellipse id="Oval" cx="6.75" cy="8.05813953" rx="1.25" ry="1.22093023"></ellipse>
                    <ellipse id="Oval" cx="11.75" cy="8.05813953" rx="1.25" ry="1.22093023"></ellipse>
                    <ellipse id="Oval" cx="16.75" cy="8.05813953" rx="1.25" ry="1.22093023"></ellipse>
                    <path d="M7.26940918,16.0643966 L3,16.1162791 C1.35,16.1162791 0,14.7976744 0,13.1860465 L0,2.93023256 C0,1.31860465 1.35,0 3,0 L20,0 C21.65,0 23,1.31860465 23,2.93023256 L23,13.1372093 C23,14.7488372 21.65,16.0674419 20,16.0674419 L13.15,16.0674419 L8.6,20.5116279 C8.45,20.6581395 8.25,20.7069767 8.05,20.7069767 C7.87059387,20.7069767 7.69118774,20.6676792 7.54787202,20.553833 L7.50057268,20.553833 C7.5156113,20.553833 7.53053333,20.5531395 7.54530458,20.5517824 C7.52975772,20.5392978 7.51464069,20.5259281 7.5,20.5116279 C7.46003626,20.4725936 7.42539619,20.4309593 7.39607978,20.3874177 C7.317294,20.2999072 7.26940918,20.1851138 7.26940918,20.0609674 L7.26940918,16.0643966 Z M8,18.9976744 L8,17.5265964 L8,18.9976744 Z M8.48036582,15.3562814 C8.48068048,15.337049 8.48083496,15.3177401 8.48083496,15.2984009 C8.48083496,15.1879702 8.48083496,15.0882575 8.47580436,15.0005834 C8.48382528,15.000196 8.49189205,15 8.5,15 L8.4757708,15 C8.46295791,14.7778181 8.41772695,14.6330625 8.25805664,14.5872661 L3,14.6511628 C2.15,14.6511628 1.5,14.0162791 1.5,13.1860465 L1.5,2.93023256 C1.5,2.1 2.15,1.46511628 3,1.46511628 L20,1.46511628 C20.85,1.46511628 21.5,2.1 21.5,2.93023256 L21.5,13.1860465 C21.5,14.0162791 20.85,14.6511628 20,14.6511628 L12.45,14.6511628 L8.5,18.5093023 L8.5,15.4976988 C8.5,15.4482162 8.49314908,15.400815 8.48036582,15.3562814 Z" id="Shape"></path>
                </g>
            </g>
        </g>
    </g>
</svg>