<?xml version="1.0" encoding="UTF-8" standalone="no"?>
<svg width="22px" height="21px" viewBox="0 0 22 21" version="1.1" xmlns="http://www.w3.org/2000/svg" xmlns:xlink="http://www.w3.org/1999/xlink">
    <!-- Generator: Sketch 40.1 (33804) - http://www.bohemiancoding.com/sketch -->
    <title>图标</title>
    <desc>Created with Sketch.</desc>
    <defs></defs>
    <g id="资料库" stroke="none" stroke-width="1" fill="none" fill-rule="evenodd">
        <g id="规章制度（首页）" transform="translate(-98.000000, -627.000000)" fill="#9B9B9B">
            <g id="底部菜单" transform="translate(0.000000, 31.000000)">
                <g id="通讯录" transform="translate(94.000000, 596.000000)">
                    <path d="M22.4793243,0 L7.82804859,0 C6.39429321,0 5.23200317,1.16076612 5.23200317,2.59266179 L5.23200317,3.69949645 L6.47180677,3.69949645 L6.47180677,2.59266179 C6.47180677,1.84668746 7.08021455,1.2398036 7.82804859,1.2398036 L22.4793243,1.2398036 C23.2271583,1.2398036 23.8355403,1.84668746 23.8355403,2.59266179 L23.8355403,18.4073382 C23.8355403,19.1533125 23.2271325,19.7601964 22.4793243,19.7601964 L7.82804859,19.7601964 C7.08021455,19.7601964 6.47180677,19.1533125 6.47180677,18.4073382 L6.47180677,17.2598483 L5.23200317,17.2598483 L5.23200317,18.4073382 C5.23200317,19.8392339 6.39429321,21 7.82804859,21 L22.4793243,21 C23.9130797,21 25.0753439,19.8392339 25.0753439,18.4073382 L25.0753439,2.59266179 C25.0753439,1.16076612 23.9130797,0 22.4793243,0 L22.4793243,0 Z M7.86147163,6.17910365 L4.60698718,6.17910365 C4.27174945,6.17910365 4,6.4508531 4,6.78609083 C4,7.12132856 4.27174945,7.39307801 4.60698718,7.39307801 L7.86147163,7.39307801 C8.19670935,7.39307801 8.46845881,7.12132856 8.46845881,6.78609083 C8.46845881,6.4508531 8.19670935,6.17910365 7.86147163,6.17910365 L7.86147163,6.17910365 Z M7.86147163,9.8800982 L4.60698718,9.8800982 C4.27174945,9.8800982 4,10.1518477 4,10.4870854 C4,10.8223231 4.27174945,11.0940726 4.60698718,11.0940726 L7.86147163,11.0940726 C8.19670935,11.0940726 8.46845881,10.8223231 8.46845881,10.4870854 C8.46845881,10.1518477 8.19670935,9.8800982 7.86147163,9.8800982 L7.86147163,9.8800982 Z M7.86147163,13.599509 L4.60698718,13.599509 C4.27174945,13.599509 4,13.8712584 4,14.2064962 C4,14.5417339 4.27174945,14.8134834 4.60698718,14.8134834 L7.86147163,14.8134834 C8.19670935,14.8134834 8.46845881,14.5417339 8.46845881,14.2064962 C8.46845881,13.8712584 8.19670935,13.599509 7.86147163,13.599509 L7.86147163,13.599509 Z M18.1309973,12.8826701 C19.3346916,12.1114606 20.1324278,10.762141 20.1324278,9.22648924 C20.1324278,6.83007803 18.1897588,4.88738328 15.7933218,4.88738328 C13.3968847,4.88738328 11.4542158,6.8300522 11.4542158,9.22648924 C11.4542158,10.7489164 12.2384433,12.0879818 13.4247803,12.8623683 C11.9673912,13.4826317 10.8487267,14.6667991 10.3957077,16.1124876 L11.7181907,16.1124876 C12.3544166,14.66122 13.9239046,13.6321055 15.7545779,13.6321055 C17.5852513,13.6321055 19.1547393,14.6612458 19.7909652,16.1124876 L21.1134482,16.1124876 C20.6653108,14.6822966 19.5655534,13.5082285 18.1309973,12.8826701 L18.1309973,12.8826701 Z M15.7933218,12.3257916 C14.9654688,12.3257916 14.1871821,12.0034168 13.6017881,11.4180229 C13.0163942,10.8326548 12.6940194,10.0543423 12.6940194,9.22648924 C12.6940194,8.39863622 13.0163942,7.62034951 13.6017881,7.03495557 C14.1871562,6.44956164 14.9654688,6.12718688 15.7933218,6.12718688 C16.6211748,6.12718688 17.3994615,6.44956164 17.9848555,7.03495557 C18.5702236,7.62034951 18.8926242,8.39863622 18.8926242,9.22648924 C18.8926242,10.0543423 18.5702494,10.8326548 17.9848555,11.4180229 C17.3994874,12.0034168 16.6211748,12.3257916 15.7933218,12.3257916 L15.7933218,12.3257916 Z" id="图标"></path>
                </g>
            </g>
        </g>
    </g>
</svg>